<svg xmlns="http://www.w3.org/2000/svg" xmlns:xlink="http://www.w3.org/1999/xlink" contentStyleType="text/css" height="631px" preserveAspectRatio="none" style="width:437px;height:631px;background:#FFFFFF;" version="1.1" viewBox="0 0 437 631" width="437px" zoomAndPan="magnify"><defs/><g><rect fill="#FFFFFF" height="445.6563" style="stroke:#181818;stroke-width:1.0;" width="10" x="21.2861" y="93.6211"/><rect fill="#FFFFFF" height="31.291" style="stroke:#181818;stroke-width:1.0;" width="10" x="396.0166" y="116.9121"/><rect fill="#FFFFFF" height="31.291" style="stroke:#181818;stroke-width:1.0;" width="10" x="396.0166" y="179.4941"/><rect fill="#FFFFFF" height="48.582" style="stroke:#181818;stroke-width:1.0;" width="10" x="396.0166" y="242.0762"/><rect fill="#FFFFFF" height="48.582" style="stroke:#181818;stroke-width:1.0;" width="10" x="396.0166" y="321.9492"/><rect fill="#FFFFFF" height="48.582" style="stroke:#181818;stroke-width:1.0;" width="10" x="396.0166" y="401.8223"/><rect fill="#FFFFFF" height="48.582" style="stroke:#181818;stroke-width:1.0;" width="10" x="396.0166" y="481.6953"/><line style="stroke:#181818;stroke-width:0.5;stroke-dasharray:5.0,5.0;" x1="26" x2="26" y1="83.6211" y2="548.2773"/><line style="stroke:#181818;stroke-width:0.5;stroke-dasharray:5.0,5.0;" x1="400.6787" x2="400.6787" y1="83.6211" y2="548.2773"/><text fill="#000000" font-family="sans-serif" font-size="14" lengthAdjust="spacing" textLength="36.5723" x="5" y="80.1074">Editor</text><ellipse cx="26.2861" cy="13.5" fill="#E3E3E3" rx="8" ry="8" style="stroke:#181818;stroke-width:0.5;"/><path d="M26.2861,21.5 L26.2861,48.5 M13.2861,29.5 L39.2861,29.5 M26.2861,48.5 L13.2861,63.5 M26.2861,48.5 L39.2861,63.5 " fill="none" style="stroke:#181818;stroke-width:0.5;"/><text fill="#000000" font-family="sans-serif" font-size="14" lengthAdjust="spacing" textLength="36.5723" x="5" y="562.3848">Editor</text><ellipse cx="26.2861" cy="574.3984" fill="#E3E3E3" rx="8" ry="8" style="stroke:#181818;stroke-width:0.5;"/><path d="M26.2861,582.3984 L26.2861,609.3984 M13.2861,590.3984 L39.2861,590.3984 M26.2861,609.3984 L13.2861,624.3984 M26.2861,609.3984 L39.2861,624.3984 " fill="none" style="stroke:#181818;stroke-width:0.5;"/><rect fill="#E3E3E3" height="32.6211" rx="2.5" ry="2.5" style="stroke:#181818;stroke-width:0.5;" width="60.6758" x="370.6787" y="50"/><text fill="#000000" font-family="sans-serif" font-size="14" lengthAdjust="spacing" textLength="46.6758" x="377.6787" y="72.1074">System</text><rect fill="#E3E3E3" height="32.6211" rx="2.5" ry="2.5" style="stroke:#181818;stroke-width:0.5;" width="60.6758" x="370.6787" y="547.2773"/><text fill="#000000" font-family="sans-serif" font-size="14" lengthAdjust="spacing" textLength="46.6758" x="377.6787" y="569.3848">System</text><rect fill="#FFFFFF" height="445.6563" style="stroke:#181818;stroke-width:1.0;" width="10" x="21.2861" y="93.6211"/><rect fill="#FFFFFF" height="31.291" style="stroke:#181818;stroke-width:1.0;" width="10" x="396.0166" y="116.9121"/><rect fill="#FFFFFF" height="31.291" style="stroke:#181818;stroke-width:1.0;" width="10" x="396.0166" y="179.4941"/><rect fill="#FFFFFF" height="48.582" style="stroke:#181818;stroke-width:1.0;" width="10" x="396.0166" y="242.0762"/><rect fill="#FFFFFF" height="48.582" style="stroke:#181818;stroke-width:1.0;" width="10" x="396.0166" y="321.9492"/><rect fill="#FFFFFF" height="48.582" style="stroke:#181818;stroke-width:1.0;" width="10" x="396.0166" y="401.8223"/><rect fill="#FFFFFF" height="48.582" style="stroke:#181818;stroke-width:1.0;" width="10" x="396.0166" y="481.6953"/><polygon fill="#181818" points="384.0166,112.9121,394.0166,116.9121,384.0166,120.9121,388.0166,116.9121" style="stroke:#181818;stroke-width:1.0;"/><line style="stroke:#181818;stroke-width:1.0;" x1="31.2861" x2="390.0166" y1="116.9121" y2="116.9121"/><text fill="#000000" font-family="sans-serif" font-size="13" font-weight="bold" lengthAdjust="spacing" textLength="7.23" x="38.2861" y="111.6494">1</text><text fill="#000000" font-family="sans-serif" font-size="13" lengthAdjust="spacing" textLength="222.5742" x="49.5161" y="111.6494">asks to add a new industry on the map</text><polygon fill="#181818" points="42.2861,144.2031,32.2861,148.2031,42.2861,152.2031,38.2861,148.2031" style="stroke:#181818;stroke-width:1.0;"/><line style="stroke:#181818;stroke-width:1.0;stroke-dasharray:2.0,2.0;" x1="36.2861" x2="400.0166" y1="148.2031" y2="148.2031"/><text fill="#000000" font-family="sans-serif" font-size="13" font-weight="bold" lengthAdjust="spacing" textLength="7.23" x="48.2861" y="142.9404">2</text><text fill="#000000" font-family="sans-serif" font-size="13" lengthAdjust="spacing" textLength="192.9307" x="59.5161" y="142.9404">displays the list of available maps</text><polygon fill="#181818" points="384.0166,175.4941,394.0166,179.4941,384.0166,183.4941,388.0166,179.4941" style="stroke:#181818;stroke-width:1.0;"/><line style="stroke:#181818;stroke-width:1.0;" x1="31.2861" x2="390.0166" y1="179.4941" y2="179.4941"/><text fill="#000000" font-family="sans-serif" font-size="13" font-weight="bold" lengthAdjust="spacing" textLength="7.23" x="38.2861" y="174.2314">3</text><text fill="#000000" font-family="sans-serif" font-size="13" lengthAdjust="spacing" textLength="80.2026" x="49.5161" y="174.2314">selects a map</text><polygon fill="#181818" points="42.2861,206.7852,32.2861,210.7852,42.2861,214.7852,38.2861,210.7852" style="stroke:#181818;stroke-width:1.0;"/><line style="stroke:#181818;stroke-width:1.0;stroke-dasharray:2.0,2.0;" x1="36.2861" x2="400.0166" y1="210.7852" y2="210.7852"/><text fill="#000000" font-family="sans-serif" font-size="13" font-weight="bold" lengthAdjust="spacing" textLength="7.23" x="48.2861" y="205.5225">4</text><text fill="#000000" font-family="sans-serif" font-size="13" lengthAdjust="spacing" textLength="317.9541" x="59.5161" y="205.5225">receives the selected map and asks for the coordinates</text><polygon fill="#181818" points="384.0166,238.0762,394.0166,242.0762,384.0166,246.0762,388.0166,242.0762" style="stroke:#181818;stroke-width:1.0;"/><line style="stroke:#181818;stroke-width:1.0;" x1="31.2861" x2="390.0166" y1="242.0762" y2="242.0762"/><text fill="#000000" font-family="sans-serif" font-size="13" font-weight="bold" lengthAdjust="spacing" textLength="7.23" x="38.2861" y="236.8135">5</text><text fill="#000000" font-family="sans-serif" font-size="13" lengthAdjust="spacing" textLength="123.5762" x="49.5161" y="236.8135">types the coordinates</text><polygon fill="#181818" points="42.2861,286.6582,32.2861,290.6582,42.2861,294.6582,38.2861,290.6582" style="stroke:#181818;stroke-width:1.0;"/><line style="stroke:#181818;stroke-width:1.0;stroke-dasharray:2.0,2.0;" x1="36.2861" x2="400.0166" y1="290.6582" y2="290.6582"/><text fill="#000000" font-family="sans-serif" font-size="13" font-weight="bold" lengthAdjust="spacing" textLength="7.23" x="48.2861" y="276.75">6</text><text fill="#000000" font-family="sans-serif" font-size="13" lengthAdjust="spacing" textLength="325.8887" x="59.5161" y="268.1045">receives data, confirms the availability of the coordinates</text><text fill="#000000" font-family="sans-serif" font-size="13" lengthAdjust="spacing" textLength="232.6924" x="63.1279" y="285.3955">and shows the available industries types</text><polygon fill="#181818" points="384.0166,317.9492,394.0166,321.9492,384.0166,325.9492,388.0166,321.9492" style="stroke:#181818;stroke-width:1.0;"/><line style="stroke:#181818;stroke-width:1.0;" x1="31.2861" x2="390.0166" y1="321.9492" y2="321.9492"/><text fill="#000000" font-family="sans-serif" font-size="13" font-weight="bold" lengthAdjust="spacing" textLength="7.23" x="38.2861" y="316.6865">7</text><text fill="#000000" font-family="sans-serif" font-size="13" lengthAdjust="spacing" textLength="139.4771" x="49.5161" y="316.6865">selects one type to build</text><polygon fill="#181818" points="42.2861,366.5313,32.2861,370.5313,42.2861,374.5313,38.2861,370.5313" style="stroke:#181818;stroke-width:1.0;"/><line style="stroke:#181818;stroke-width:1.0;stroke-dasharray:2.0,2.0;" x1="36.2861" x2="400.0166" y1="370.5313" y2="370.5313"/><text fill="#000000" font-family="sans-serif" font-size="13" font-weight="bold" lengthAdjust="spacing" textLength="7.23" x="48.2861" y="356.623">8</text><text fill="#000000" font-family="sans-serif" font-size="13" lengthAdjust="spacing" textLength="231.2515" x="59.5161" y="347.9775">receives the chosen type and shows the</text><text fill="#000000" font-family="sans-serif" font-size="13" lengthAdjust="spacing" textLength="161.1416" x="63.1279" y="365.2686">available types of resources</text><polygon fill="#181818" points="384.0166,397.8223,394.0166,401.8223,384.0166,405.8223,388.0166,401.8223" style="stroke:#181818;stroke-width:1.0;"/><line style="stroke:#181818;stroke-width:1.0;" x1="31.2861" x2="390.0166" y1="401.8223" y2="401.8223"/><text fill="#000000" font-family="sans-serif" font-size="13" font-weight="bold" lengthAdjust="spacing" textLength="7.23" x="38.2861" y="396.5596">9</text><text fill="#000000" font-family="sans-serif" font-size="13" lengthAdjust="spacing" textLength="175.5952" x="49.5161" y="396.5596">selects one resource to assign</text><polygon fill="#181818" points="42.2861,446.4043,32.2861,450.4043,42.2861,454.4043,38.2861,450.4043" style="stroke:#181818;stroke-width:1.0;"/><line style="stroke:#181818;stroke-width:1.0;stroke-dasharray:2.0,2.0;" x1="36.2861" x2="400.0166" y1="450.4043" y2="450.4043"/><text fill="#000000" font-family="sans-serif" font-size="13" font-weight="bold" lengthAdjust="spacing" textLength="14.46" x="48.2861" y="436.4961">10</text><text fill="#000000" font-family="sans-serif" font-size="13" lengthAdjust="spacing" textLength="259.416" x="66.7461" y="427.8506">receives the chosen resource, shows all data</text><text fill="#000000" font-family="sans-serif" font-size="13" lengthAdjust="spacing" textLength="149.5825" x="66.7461" y="445.1416">and requests confirmation</text><polygon fill="#181818" points="384.0166,477.6953,394.0166,481.6953,384.0166,485.6953,388.0166,481.6953" style="stroke:#181818;stroke-width:1.0;"/><line style="stroke:#181818;stroke-width:1.0;" x1="31.2861" x2="390.0166" y1="481.6953" y2="481.6953"/><text fill="#000000" font-family="sans-serif" font-size="13" font-weight="bold" lengthAdjust="spacing" textLength="14.46" x="38.2861" y="476.4326">11</text><text fill="#000000" font-family="sans-serif" font-size="13" lengthAdjust="spacing" textLength="78.0317" x="56.7461" y="476.4326">confirms data</text><polygon fill="#181818" points="42.2861,526.2773,32.2861,530.2773,42.2861,534.2773,38.2861,530.2773" style="stroke:#181818;stroke-width:1.0;"/><line style="stroke:#181818;stroke-width:1.0;stroke-dasharray:2.0,2.0;" x1="36.2861" x2="400.0166" y1="530.2773" y2="530.2773"/><text fill="#000000" font-family="sans-serif" font-size="13" font-weight="bold" lengthAdjust="spacing" textLength="14.46" x="48.2861" y="516.3691">12</text><text fill="#000000" font-family="sans-serif" font-size="13" lengthAdjust="spacing" textLength="243.5342" x="66.7461" y="507.7236">creates the requested industry on the map</text><text fill="#000000" font-family="sans-serif" font-size="13" lengthAdjust="spacing" textLength="180.6606" x="70.3579" y="525.0146">and displays operation success</text><!--SRC=[fPGzRiCm38LtduB8t5wWGxUUe6iNHc9Y8hBeYd82txwKBBi_I84crM8R4Z- -HrBM4ySH4mumI1JN9na8SfgeqsrdH7V28xtcEH0aSXdZCNmze3rwkN0ymW63KjVXb2LEmvwIlRii2NOldksv0rHu6SOWCr5dqPaTZnWpx5vdpJJK0yjh3UKpPlgCwC3M-WMFp-qeF5dOII4BeFU04Ea27FsaESqW4N9FCE1OmpVgcWRQQgn7msufdi2pZW5dhOp0ca4EW6VaWFjGgLe9dgw2hufL2bP6DQ5tYh8k49zf4RNGo1SOOFHBBGvMzRBhH9BdQEpRTUPvR3b-KkxLwp7ZWz7YWTEme5ijEN2UIsr_f8EtM4rfBvTl0LRyrc8k8elKMmskVP185L06Q3znyF_kYUj5AIxGx-gBdSt0Kc0pdKXbIkwF5guEKp6nOkfDKELZ_Dt9trsir8Tc0qEeZJGlnLkYzudK5BIsOcQ9Dy_QDXE5V4_zNQ8wBqLuasHtuifVO9sexMRBIAcA1fsSzU2N9dm0]--></g></svg>