<svg xmlns="http://www.w3.org/2000/svg" xmlns:xlink="http://www.w3.org/1999/xlink" contentStyleType="text/css" height="865px" preserveAspectRatio="none" style="width:1502px;height:865px;background:#FFFFFF;" version="1.1" viewBox="0 0 1502 865" width="1502px" zoomAndPan="magnify"><defs/><g><!--class Player--><g id="elem_Player"><rect codeLine="12" fill="#F1F1F1" height="92.4844" id="Player" rx="2.5" ry="2.5" style="stroke:#181818;stroke-width:0.5;" width="71.917" x="7" y="523.5"/><text fill="#000000" font-family="sans-serif" font-size="14" lengthAdjust="spacing" textLength="39.6826" x="23.1172" y="543.6074">Player</text><line style="stroke:#181818;stroke-width:0.5;" x1="8" x2="77.917" y1="552.1211" y2="552.1211"/><text fill="#000000" font-family="sans-serif" font-size="14" lengthAdjust="spacing" textLength="35.0205" x="13" y="571.2285">name</text><text fill="#000000" font-family="sans-serif" font-size="14" lengthAdjust="spacing" textLength="59.917" x="13" y="589.8496">password</text><text fill="#000000" font-family="sans-serif" font-size="14" lengthAdjust="spacing" textLength="42.8203" x="13" y="608.4707">budget</text></g><!--class Locomotive--><g id="elem_Locomotive"><rect codeLine="18" fill="#F1F1F1" height="55.2422" id="Locomotive" rx="2.5" ry="2.5" style="stroke:#181818;stroke-width:0.5;" width="77.5928" x="408.5" y="198"/><text fill="#000000" font-family="sans-serif" font-size="14" lengthAdjust="spacing" textLength="71.5928" x="411.5" y="218.1074">Locomotive</text><line style="stroke:#181818;stroke-width:0.5;" x1="409.5" x2="485.0928" y1="226.6211" y2="226.6211"/><text fill="#000000" font-family="sans-serif" font-size="14" lengthAdjust="spacing" textLength="13.2207" x="414.5" y="245.7285">iD</text></g><!--class LocomotiveModel--><g id="elem_LocomotiveModel"><rect codeLine="22" fill="#F1F1F1" height="166.9688" id="LocomotiveModel" rx="2.5" ry="2.5" style="stroke:#181818;stroke-width:0.5;" width="131.0752" x="718" y="86"/><text fill="#000000" font-family="sans-serif" font-size="14" lengthAdjust="spacing" textLength="109.7236" x="728.6758" y="106.1074">LocomotiveModel</text><line style="stroke:#181818;stroke-width:0.5;" x1="719" x2="848.0752" y1="114.6211" y2="114.6211"/><text fill="#000000" font-family="sans-serif" font-size="14" lengthAdjust="spacing" textLength="38.1309" x="724" y="133.7285">power</text><text fill="#000000" font-family="sans-serif" font-size="14" lengthAdjust="spacing" textLength="75.4893" x="724" y="152.3496">acceleration</text><text fill="#000000" font-family="sans-serif" font-size="14" lengthAdjust="spacing" textLength="59.9443" x="724" y="170.9707">topSpeed</text><text fill="#000000" font-family="sans-serif" font-size="14" lengthAdjust="spacing" textLength="117.5166" x="724" y="189.5918">operationStartYear</text><text fill="#000000" font-family="sans-serif" font-size="14" lengthAdjust="spacing" textLength="51.3584" x="724" y="208.2129">fuelCost</text><text fill="#000000" font-family="sans-serif" font-size="14" lengthAdjust="spacing" textLength="119.0752" x="724" y="226.834">maintenancePYear</text><text fill="#000000" font-family="sans-serif" font-size="14" lengthAdjust="spacing" textLength="25.6758" x="724" y="245.4551">cost</text></g><!--class LocomotiveType--><g id="elem_LocomotiveType"><rect codeLine="32" fill="#F1F1F1" height="36.6211" id="LocomotiveType" rx="2.5" ry="2.5" style="stroke:#181818;stroke-width:0.5;" width="108.7168" x="976" y="46"/><text fill="#000000" font-family="sans-serif" font-size="14" lengthAdjust="spacing" textLength="102.7168" x="979" y="66.1074">LocomotiveType</text><line style="stroke:#181818;stroke-width:0.5;" x1="977" x2="1083.7168" y1="74.6211" y2="74.6211"/></g><!--class Route--><g id="elem_Route"><rect codeLine="35" fill="#F1F1F1" height="36.6211" id="Route" rx="2.5" ry="2.5" style="stroke:#181818;stroke-width:0.5;" width="43.3584" x="426" y="415"/><text fill="#000000" font-family="sans-serif" font-size="14" lengthAdjust="spacing" textLength="37.3584" x="429" y="435.1074">Route</text><line style="stroke:#181818;stroke-width:0.5;" x1="427" x2="468.3584" y1="443.6211" y2="443.6211"/></g><!--class Station--><g id="elem_Station"><rect codeLine="38" fill="#F1F1F1" height="92.4844" id="Station" rx="2.5" ry="2.5" style="stroke:#181818;stroke-width:0.5;" width="63.3584" x="999" y="549.5"/><text fill="#000000" font-family="sans-serif" font-size="14" lengthAdjust="spacing" textLength="43.5859" x="1008.8862" y="569.6074">Station</text><line style="stroke:#181818;stroke-width:0.5;" x1="1000" x2="1061.3584" y1="578.1211" y2="578.1211"/><text fill="#000000" font-family="sans-serif" font-size="14" lengthAdjust="spacing" textLength="35.0205" x="1005" y="597.2285">name</text><text fill="#000000" font-family="sans-serif" font-size="14" lengthAdjust="spacing" textLength="51.3584" x="1005" y="615.8496">capacity</text><text fill="#000000" font-family="sans-serif" font-size="14" lengthAdjust="spacing" textLength="38.9102" x="1005" y="634.4707">centre</text></g><!--class StationType--><g id="elem_StationType"><rect codeLine="44" fill="#F1F1F1" height="73.8633" id="StationType" rx="2.5" ry="2.5" style="stroke:#181818;stroke-width:0.5;" width="80.71" x="1195" y="469.5"/><text fill="#000000" font-family="sans-serif" font-size="14" lengthAdjust="spacing" textLength="74.71" x="1198" y="489.6074">StationType</text><line style="stroke:#181818;stroke-width:0.5;" x1="1196" x2="1274.71" y1="498.1211" y2="498.1211"/><text fill="#000000" font-family="sans-serif" font-size="14" lengthAdjust="spacing" textLength="38.1309" x="1201" y="517.2285">radius</text><text fill="#000000" font-family="sans-serif" font-size="14" lengthAdjust="spacing" textLength="25.6758" x="1201" y="535.8496">cost</text></g><!--class Cargo--><g id="elem_Cargo"><rect codeLine="49" fill="#F1F1F1" height="55.2422" id="Cargo" rx="2.5" ry="2.5" style="stroke:#181818;stroke-width:0.5;" width="61.0342" x="1205" y="696"/><text fill="#000000" font-family="sans-serif" font-size="14" lengthAdjust="spacing" textLength="38.1309" x="1216.4517" y="716.1074">Cargo</text><line style="stroke:#181818;stroke-width:0.5;" x1="1206" x2="1265.0342" y1="724.6211" y2="724.6211"/><text fill="#000000" font-family="sans-serif" font-size="14" lengthAdjust="spacing" textLength="49.0342" x="1211" y="743.7285">quantity</text></g><!--class ResourceType--><g id="elem_ResourceType"><rect codeLine="53" fill="#F1F1F1" height="55.2422" id="ResourceType" rx="2.5" ry="2.5" style="stroke:#181818;stroke-width:0.5;" width="97.041" x="1398" y="694"/><text fill="#000000" font-family="sans-serif" font-size="14" lengthAdjust="spacing" textLength="91.041" x="1401" y="714.1074">ResourceType</text><line style="stroke:#181818;stroke-width:0.5;" x1="1399" x2="1494.041" y1="722.6211" y2="722.6211"/><text fill="#000000" font-family="sans-serif" font-size="14" lengthAdjust="spacing" textLength="33.4688" x="1404" y="741.7285">value</text></g><!--class Railway--><g id="elem_Railway"><rect codeLine="57" fill="#F1F1F1" height="73.8633" id="Railway" rx="2.5" ry="2.5" style="stroke:#181818;stroke-width:0.5;" width="55.0137" x="756" y="467.5"/><text fill="#000000" font-family="sans-serif" font-size="14" lengthAdjust="spacing" textLength="49.0137" x="759" y="487.6074">Railway</text><line style="stroke:#181818;stroke-width:0.5;" x1="757" x2="810.0137" y1="496.1211" y2="496.1211"/><text fill="#000000" font-family="sans-serif" font-size="14" lengthAdjust="spacing" textLength="27.2275" x="762" y="515.2285">start</text><text fill="#000000" font-family="sans-serif" font-size="14" lengthAdjust="spacing" textLength="23.3584" x="762" y="533.8496">end</text></g><!--class RailwayType--><g id="elem_RailwayType"><rect codeLine="62" fill="#F1F1F1" height="73.8633" id="RailwayType" rx="2.5" ry="2.5" style="stroke:#181818;stroke-width:0.5;" width="93.7031" x="983.5" y="440.5"/><text fill="#000000" font-family="sans-serif" font-size="14" lengthAdjust="spacing" textLength="80.1377" x="990.2827" y="460.6074">RailwayType</text><line style="stroke:#181818;stroke-width:0.5;" x1="984.5" x2="1076.2031" y1="469.1211" y2="469.1211"/><text fill="#000000" font-family="sans-serif" font-size="14" lengthAdjust="spacing" textLength="25.6758" x="989.5" y="488.2285">cost</text><text fill="#000000" font-family="sans-serif" font-size="14" lengthAdjust="spacing" textLength="81.7031" x="989.5" y="506.8496">electrification</text></g><!--class Position--><g id="elem_Position"><rect codeLine="67" fill="#F1F1F1" height="73.8633" id="Position" rx="2.5" ry="2.5" style="stroke:#181818;stroke-width:0.5;" width="87.4893" x="740" y="647.5"/><text fill="#000000" font-family="sans-serif" font-size="14" lengthAdjust="spacing" textLength="49.8066" x="758.8413" y="667.6074">Position</text><line style="stroke:#181818;stroke-width:0.5;" x1="741" x2="826.4893" y1="676.1211" y2="676.1211"/><text fill="#000000" font-family="sans-serif" font-size="14" lengthAdjust="spacing" textLength="75.4893" x="746" y="695.2285">xCoordinate</text><text fill="#000000" font-family="sans-serif" font-size="14" lengthAdjust="spacing" textLength="75.4893" x="746" y="713.8496">yCoordinate</text></g><!--class Train--><g id="elem_Train"><rect codeLine="72" fill="#F1F1F1" height="36.6211" id="Train" rx="2.5" ry="2.5" style="stroke:#181818;stroke-width:0.5;" width="37.8965" x="205.5" y="526"/><text fill="#000000" font-family="sans-serif" font-size="14" lengthAdjust="spacing" textLength="31.8965" x="208.5" y="546.1074">Train</text><line style="stroke:#181818;stroke-width:0.5;" x1="206.5" x2="242.3965" y1="554.6211" y2="554.6211"/></g><!--class Carriage--><g id="elem_Carriage"><rect codeLine="75" fill="#F1F1F1" height="36.6211" id="Carriage" rx="2.5" ry="2.5" style="stroke:#181818;stroke-width:0.5;" width="59.6895" x="882.5" y="746"/><text fill="#000000" font-family="sans-serif" font-size="14" lengthAdjust="spacing" textLength="53.6895" x="885.5" y="766.1074">Carriage</text><line style="stroke:#181818;stroke-width:0.5;" x1="883.5" x2="941.1895" y1="774.6211" y2="774.6211"/></g><!--class TimeRestriction--><g id="elem_TimeRestriction"><rect codeLine="78" fill="#F1F1F1" height="55.2422" id="TimeRestriction" rx="2.5" ry="2.5" style="stroke:#181818;stroke-width:0.5;" width="103.2412" x="396" y="108"/><text fill="#000000" font-family="sans-serif" font-size="14" lengthAdjust="spacing" textLength="97.2412" x="399" y="128.1074">TimeRestriction</text><line style="stroke:#181818;stroke-width:0.5;" x1="397" x2="498.2412" y1="136.6211" y2="136.6211"/><text fill="#000000" font-family="sans-serif" font-size="14" lengthAdjust="spacing" textLength="27.2344" x="402" y="155.7285">year</text></g><!--class TechnologicalRestriction--><g id="elem_TechnologicalRestriction"><rect codeLine="82" fill="#F1F1F1" height="36.6211" id="TechnologicalRestriction" rx="2.5" ry="2.5" style="stroke:#181818;stroke-width:0.5;" width="158.5166" x="529" y="7"/><text fill="#000000" font-family="sans-serif" font-size="14" lengthAdjust="spacing" textLength="152.5166" x="532" y="27.1074">TechnologicalRestriction</text><line style="stroke:#181818;stroke-width:0.5;" x1="530" x2="686.5166" y1="35.6211" y2="35.6211"/></g><!--class Scenario--><g id="elem_Scenario"><rect codeLine="85" fill="#F1F1F1" height="36.6211" id="Scenario" rx="2.5" ry="2.5" style="stroke:#181818;stroke-width:0.5;" width="61.2549" x="194" y="244"/><text fill="#000000" font-family="sans-serif" font-size="14" lengthAdjust="spacing" textLength="55.2549" x="197" y="264.1074">Scenario</text><line style="stroke:#181818;stroke-width:0.5;" x1="195" x2="254.2549" y1="272.6211" y2="272.6211"/></g><!--class CargoStatus--><g id="elem_CargoStatus"><rect codeLine="88" fill="#F1F1F1" height="73.8633" id="CargoStatus" rx="2.5" ry="2.5" style="stroke:#181818;stroke-width:0.5;" width="83.8203" x="1404.5" y="784.5"/><text fill="#000000" font-family="sans-serif" font-size="14" lengthAdjust="spacing" textLength="77.8203" x="1407.5" y="804.6074">CargoStatus</text><line style="stroke:#181818;stroke-width:0.5;" x1="1405.5" x2="1487.3203" y1="813.1211" y2="813.1211"/><text fill="#000000" font-family="sans-serif" font-size="14" lengthAdjust="spacing" textLength="40.4688" x="1410.5" y="832.2285">supply</text><text fill="#000000" font-family="sans-serif" font-size="14" lengthAdjust="spacing" textLength="50.5928" x="1410.5" y="850.8496">demand</text></g><!--class PointOfRoute--><g id="elem_PointOfRoute"><rect codeLine="93" fill="#F1F1F1" height="73.8633" id="PointOfRoute" rx="2.5" ry="2.5" style="stroke:#181818;stroke-width:0.5;" width="90.0479" x="1401.5" y="560.5"/><text fill="#000000" font-family="sans-serif" font-size="14" lengthAdjust="spacing" textLength="84.0479" x="1404.5" y="580.6074">PointOfRoute</text><line style="stroke:#181818;stroke-width:0.5;" x1="1402.5" x2="1490.5479" y1="589.1211" y2="589.1211"/><text fill="#000000" font-family="sans-serif" font-size="14" lengthAdjust="spacing" textLength="49.0342" x="1407.5" y="608.2285">quantity</text><text fill="#000000" font-family="sans-serif" font-size="14" lengthAdjust="spacing" textLength="35.0205" x="1407.5" y="626.8496">mode</text></g><!--link Player to Scenario--><g id="link_Player_Scenario"><path codeLine="98" d="M62.01,523.32 C73.99,494.26 90.82,456.37 109,424.5 C140.23,369.75 185.32,310.49 208.5,281.15 " fill="none" id="Player-Scenario" style="stroke:#181818;stroke-width:1.0;"/><polygon fill="#000000" points="116.5879,328.8673,109.3917,335.0855,114.421,338.1278,116.5879,328.8673" style="stroke:#000000;stroke-width:1.0;"/><text fill="#000000" font-family="sans-serif" font-size="13" lengthAdjust="spacing" textLength="40.46" x="123" y="338.5283">selects</text><text fill="#000000" font-family="sans-serif" font-size="13" lengthAdjust="spacing" textLength="5.0591" x="59.4453" y="512.303">*</text><text fill="#000000" font-family="sans-serif" font-size="13" lengthAdjust="spacing" textLength="7.23" x="196.256" y="302.5649">1</text></g><!--link Player to Station--><g id="link_Player_Station"><path codeLine="99" d="M79.3,606.98 C88.4,615.2 98.58,623.29 109,629.5 C221.81,696.68 265.28,687.24 396,699.5 C441.58,703.77 453.47,704.27 499,699.5 C584.39,690.56 612.18,699.8 688,659.5 C704.38,650.8 701.22,638.4 718,630.5 C812.53,585.98 940.48,588.55 998.55,592.62 " fill="none" id="Player-Station" style="stroke:#181818;stroke-width:1.0;"/><polygon fill="#000000" points="433.4994,690.0674,424.4095,687.2701,424.5013,693.1473,433.4994,690.0674" style="stroke:#000000;stroke-width:1.0;"/><text fill="#000000" font-family="sans-serif" font-size="13" lengthAdjust="spacing" textLength="33.9663" x="437.5" y="695.5283">builds</text><text fill="#000000" font-family="sans-serif" font-size="13" lengthAdjust="spacing" textLength="7.23" x="86.9167" y="629.7548">1</text><text fill="#000000" font-family="sans-serif" font-size="13" lengthAdjust="spacing" textLength="5.0591" x="985.9813" y="607.8565">*</text></g><!--link Player to Route--><g id="link_Player_Route"><path codeLine="100" d="M79.31,553.31 C125.74,532.5 210.19,496.2 285,472.5 C334.77,456.73 394.89,443.76 425.85,437.52 " fill="none" id="Player-Route" style="stroke:#181818;stroke-width:1.0;"/><polygon fill="#000000" points="205.7423,472.561,196.232,472.64,198.0948,478.2149,205.7423,472.561" style="stroke:#000000;stroke-width:1.0;"/><text fill="#000000" font-family="sans-serif" font-size="13" lengthAdjust="spacing" textLength="42.6309" x="210" y="479.5283">creates</text><text fill="#000000" font-family="sans-serif" font-size="13" lengthAdjust="spacing" textLength="7.23" x="86.9286" y="565.854">1</text><text fill="#000000" font-family="sans-serif" font-size="13" lengthAdjust="spacing" textLength="5.0591" x="412.8007" y="455.8065">*</text></g><!--link Player to Railway--><g id="link_Player_Railway"><path codeLine="101" d="M79.11,587.4 C155.86,624.17 344.11,701.52 499,661.5 C602.23,634.83 707.97,561.61 755.94,525.38 " fill="none" id="Player-Railway" style="stroke:#181818;stroke-width:1.0;"/><polygon fill="#000000" points="311.4791,649.6893,302.2036,647.588,302.74,653.4413,311.4791,649.6893" style="stroke:#000000;stroke-width:1.0;"/><text fill="#000000" font-family="sans-serif" font-size="13" lengthAdjust="spacing" textLength="33.9663" x="315.5" y="655.5283">builds</text><text fill="#000000" font-family="sans-serif" font-size="13" lengthAdjust="spacing" textLength="7.23" x="86.939" y="606.6068">1</text><text fill="#000000" font-family="sans-serif" font-size="13" lengthAdjust="spacing" textLength="5.0591" x="742.8675" y="547.3617">*</text></g><!--link Player to Cargo--><g id="link_Player_Cargo"><path codeLine="102" d="M52.12,615.7 C68.87,694.27 115.18,845.5 223.5,845.5 C223.5,845.5 223.5,845.5 1031.5,845.5 C1104.28,845.5 1173.46,787.18 1209.23,751.18 " fill="none" id="Player-Cargo" style="stroke:#181818;stroke-width:1.0;"/><polygon fill="#000000" points="590.9661,836.727,582.3241,832.7561,581.6406,838.5941,590.9661,836.727" style="stroke:#000000;stroke-width:1.0;"/><text fill="#000000" font-family="sans-serif" font-size="13" lengthAdjust="spacing" textLength="40.46" x="595" y="841.5283">selects</text><text fill="#000000" font-family="sans-serif" font-size="13" lengthAdjust="spacing" textLength="7.23" x="46.0045" y="638.0895">1</text><text fill="#000000" font-family="sans-serif" font-size="13" lengthAdjust="spacing" textLength="5.0591" x="1197.9393" y="773.128">*</text></g><!--link Player to Locomotive--><g id="link_Player_Locomotive"><path codeLine="103" d="M48.67,523.32 C55.6,470.34 72.01,382.17 109,315.5 C135.53,267.67 153.57,263.34 194,226.5 C255.26,170.69 288.48,125.2 366,154.5 C366.8,154.8 392.87,177.85 415.12,197.61 " fill="none" id="Player-Locomotive" style="stroke:#181818;stroke-width:1.0;"/><polygon fill="#000000" points="212.2372,158.8238,203.5241,162.6362,207.429,167.0295,212.2372,158.8238" style="stroke:#000000;stroke-width:1.0;"/><text fill="#000000" font-family="sans-serif" font-size="13" lengthAdjust="spacing" textLength="27.46" x="217.5" y="167.5283">buys</text><text fill="#000000" font-family="sans-serif" font-size="13" lengthAdjust="spacing" textLength="7.23" x="42.0117" y="512.303">1</text><text fill="#000000" font-family="sans-serif" font-size="13" lengthAdjust="spacing" textLength="19.5127" x="387.0594" y="186.6833">1..*</text></g><!--link Scenario to TechnologicalRestriction--><g id="link_Scenario_TechnologicalRestriction"><path codeLine="105" d="M230.67,243.68 C238.55,218.07 255.83,172.15 285,143.5 C351.36,78.33 456.6,48.77 528.69,35.62 " fill="none" id="Scenario-TechnologicalRestriction" style="stroke:#181818;stroke-width:1.0;"/><polygon fill="#000000" points="303.5997,77.2833,294.5009,80.0513,297.8656,84.8708,303.5997,77.2833" style="stroke:#000000;stroke-width:1.0;"/><text fill="#000000" font-family="sans-serif" font-size="13" lengthAdjust="spacing" textLength="47.6963" x="308.5" y="85.5283">includes</text><text fill="#000000" font-family="sans-serif" font-size="13" lengthAdjust="spacing" textLength="7.23" x="224.4507" y="232.7815">1</text><text fill="#000000" font-family="sans-serif" font-size="13" lengthAdjust="spacing" textLength="5.0591" x="515.8707" y="51.455">*</text></g><!--link Scenario to TimeRestriction--><g id="link_Scenario_TimeRestriction"><path codeLine="106" d="M245.5,243.99 C256.63,234.22 271.02,222.45 285,213.5 C320.27,190.92 363.06,170.54 395.73,156.27 " fill="none" id="Scenario-TimeRestriction" style="stroke:#181818;stroke-width:1.0;"/><polygon fill="#000000" points="303.8178,158.6243,294.5249,160.6472,297.4887,165.7231,303.8178,158.6243" style="stroke:#000000;stroke-width:1.0;"/><text fill="#000000" font-family="sans-serif" font-size="13" lengthAdjust="spacing" textLength="47.6963" x="308.5" y="166.5283">includes</text><text fill="#000000" font-family="sans-serif" font-size="13" lengthAdjust="spacing" textLength="7.23" x="243.8556" y="232.8491">1</text><text fill="#000000" font-family="sans-serif" font-size="13" lengthAdjust="spacing" textLength="5.0591" x="383.0855" y="174.4178">*</text></g><!--link Scenario to Station--><g id="link_Scenario_Station"><path codeLine="107" d="M255.37,267.09 C377.61,286.38 838.4,364.38 946,459.5 C972.28,482.73 957.76,502.54 976,532.5 C982.49,543.16 990.75,553.85 998.83,563.32 " fill="none" id="Scenario-Station" style="stroke:#181818;stroke-width:1.0;"/><polygon fill="#000000" points="586.6449,309.9962,579.3301,303.918,577.1544,309.3784,586.6449,309.9962" style="stroke:#000000;stroke-width:1.0;"/><text fill="#000000" font-family="sans-serif" font-size="13" lengthAdjust="spacing" textLength="48.4199" x="591" y="313.5283">contains</text><text fill="#000000" font-family="sans-serif" font-size="13" lengthAdjust="spacing" textLength="7.23" x="263.3152" y="284.2228">1</text><text fill="#000000" font-family="sans-serif" font-size="13" lengthAdjust="spacing" textLength="5.0591" x="985.8936" y="550.9187">*</text></g><!--link Scenario to Route--><g id="link_Scenario_Route"><path codeLine="108" d="M236.73,281.01 C247.44,297.38 264.88,321.02 285,336.5 C316.22,360.53 332.08,352.47 366,372.5 C387.59,385.25 410.18,402.79 425.91,415.79 " fill="none" id="Scenario-Route" style="stroke:#181818;stroke-width:1.0;"/><polygon fill="#000000" points="303.0722,330.0467,297.4108,322.4048,294.0002,327.192,303.0722,330.0467" style="stroke:#000000;stroke-width:1.0;"/><text fill="#000000" font-family="sans-serif" font-size="13" lengthAdjust="spacing" textLength="48.4199" x="308" y="332.5283">contains</text><text fill="#000000" font-family="sans-serif" font-size="13" lengthAdjust="spacing" textLength="7.23" x="232.1818" y="302.7291">1</text><text fill="#000000" font-family="sans-serif" font-size="13" lengthAdjust="spacing" textLength="5.0591" x="412.8806" y="426.8785">*</text></g><!--link Scenario to Locomotive--><g id="link_Scenario_Locomotive"><path codeLine="109" d="M255.31,257.51 C294.89,250.88 364.86,239.17 408.29,231.9 " fill="none" id="Scenario-Locomotive" style="stroke:#181818;stroke-width:1.0;"/><polygon fill="#000000" points="303.9314,229.32,294.5252,227.9148,295.4957,233.712,303.9314,229.32" style="stroke:#000000;stroke-width:1.0;"/><text fill="#000000" font-family="sans-serif" font-size="13" lengthAdjust="spacing" textLength="48.4199" x="308" y="235.5283">contains</text><text fill="#000000" font-family="sans-serif" font-size="13" lengthAdjust="spacing" textLength="7.23" x="263.2413" y="251.4962">1</text><text fill="#000000" font-family="sans-serif" font-size="13" lengthAdjust="spacing" textLength="5.0591" x="395.3835" y="248.7733">*</text></g><!--link TimeRestriction to LocomotiveModel--><g id="link_TimeRestriction_LocomotiveModel"><path codeLine="111" d="M499.23,140.66 C557.72,146.62 653.98,156.42 717.81,162.91 " fill="none" id="TimeRestriction-LocomotiveModel" style="stroke:#181818;stroke-width:1.0;"/><polygon fill="#000000" points="591.9743,134.6519,583.2733,130.812,582.6781,136.6597,591.9743,134.6519" style="stroke:#000000;stroke-width:1.0;"/><text fill="#000000" font-family="sans-serif" font-size="13" lengthAdjust="spacing" textLength="38.2954" x="596" y="139.5283">affects</text><text fill="#000000" font-family="sans-serif" font-size="13" lengthAdjust="spacing" textLength="7.23" x="507.3411" y="156.6982">1</text><text fill="#000000" font-family="sans-serif" font-size="13" lengthAdjust="spacing" textLength="5.0591" x="704.9246" y="177.1778">*</text></g><!--link TechnologicalRestriction to LocomotiveType--><g id="link_TechnologicalRestriction_LocomotiveType"><path codeLine="113" d="M688.01,32.79 C771.94,40.58 902.76,52.73 975.71,59.51 " fill="none" id="TechnologicalRestriction-LocomotiveType" style="stroke:#181818;stroke-width:1.0;"/><polygon fill="#000000" points="766.9786,27.6079,758.244,23.8451,757.7005,29.6978,766.9786,27.6079" style="stroke:#000000;stroke-width:1.0;"/><text fill="#000000" font-family="sans-serif" font-size="13" lengthAdjust="spacing" textLength="38.2954" x="771" y="32.5283">affects</text><text fill="#000000" font-family="sans-serif" font-size="13" lengthAdjust="spacing" textLength="7.23" x="695.4348" y="48.2544">1</text><text fill="#000000" font-family="sans-serif" font-size="13" lengthAdjust="spacing" textLength="5.0591" x="963.0347" y="74.055">*</text></g><!--link Position to Station--><g id="link_Position_Station"><path codeLine="115" d="M827.14,675.25 C860.18,667.46 906.78,655.09 946,639.5 C964.12,632.3 983.44,622.28 998.92,613.63 " fill="none" id="Position-Station" style="stroke:#181818;stroke-width:1.0;"/><polygon fill="#000000" points="895.2936,631.8337,904.7998,631.546,902.8152,626.0134,895.2936,631.8337" style="stroke:#000000;stroke-width:1.0;"/><text fill="#000000" font-family="sans-serif" font-size="13" lengthAdjust="spacing" textLength="20.96" x="909" y="635.5283">has</text><text fill="#000000" font-family="sans-serif" font-size="13" lengthAdjust="spacing" textLength="7.23" x="835.5137" y="689.1828">1</text><text fill="#000000" font-family="sans-serif" font-size="13" lengthAdjust="spacing" textLength="7.23" x="983.7929" y="633.7942">1</text></g><!--link Station to Cargo--><g id="link_Station_Cargo"><path codeLine="117" d="M1062.33,614.94 C1100.93,639.28 1166.6,680.68 1204.7,704.71 " fill="none" id="Station-Cargo" style="stroke:#181818;stroke-width:1.0;"/><polygon fill="#000000" points="1124.2294,644.8123,1118.1458,637.502,1115.0108,642.474,1124.2294,644.8123" style="stroke:#000000;stroke-width:1.0;"/><text fill="#000000" font-family="sans-serif" font-size="13" lengthAdjust="spacing" textLength="35.4009" x="1129" y="647.5283">stores</text><text fill="#000000" font-family="sans-serif" font-size="13" lengthAdjust="spacing" textLength="7.23" x="1070.4852" y="635.4071">1</text><text fill="#000000" font-family="sans-serif" font-size="13" lengthAdjust="spacing" textLength="5.0591" x="1192.0023" y="716.3644">*</text></g><!--link Station to StationType--><g id="link_Station_StationType"><path codeLine="118" d="M1062.33,581.98 C1097.82,566.42 1156.2,540.83 1195,523.82 " fill="none" id="Station-StationType" style="stroke:#181818;stroke-width:1.0;"/><polygon fill="#000000" points="1132.0793,526.138,1122.6153,527.0779,1124.9752,532.4612,1132.0793,526.138" style="stroke:#000000;stroke-width:1.0;"/><text fill="#000000" font-family="sans-serif" font-size="13" lengthAdjust="spacing" textLength="20.96" x="1136.5" y="533.5283">has</text><text fill="#000000" font-family="sans-serif" font-size="13" lengthAdjust="spacing" textLength="7.23" x="1070.4852" y="594.8251">1</text><text fill="#000000" font-family="sans-serif" font-size="13" lengthAdjust="spacing" textLength="7.23" x="1179.6621" y="542.811">1</text></g><!--link Station to PointOfRoute--><g id="link_Station_PointOfRoute"><path codeLine="119" d="M1062.28,595.65 C1134.89,596 1317.1,596.88 1401.42,597.29 " fill="none" id="Station-PointOfRoute" style="stroke:#181818;stroke-width:1.0;"/><polygon fill="#000000" points="1204.5001,586.1213,1213.5308,589.104,1213.5592,583.2262,1204.5001,586.1213" style="stroke:#000000;stroke-width:1.0;"/><text fill="#000000" font-family="sans-serif" font-size="13" lengthAdjust="spacing" textLength="47.6963" x="1218.5" y="591.5283">includes</text><text fill="#000000" font-family="sans-serif" font-size="13" lengthAdjust="spacing" textLength="7.23" x="1070.4237" y="611.6563">1</text><text fill="#000000" font-family="sans-serif" font-size="13" lengthAdjust="spacing" textLength="7.23" x="1386.389" y="612.7268">1</text></g><!--link Locomotive to LocomotiveModel--><g id="link_Locomotive_LocomotiveModel"><path codeLine="121" d="M486.67,219.15 C533.93,211.29 616.91,197.45 688,185.5 C697.68,183.87 707.92,182.14 717.94,180.45 " fill="none" id="Locomotive-LocomotiveModel" style="stroke:#181818;stroke-width:1.0;"/><polygon fill="#000000" points="600.9314,175.3203,591.5253,173.9145,592.4954,179.7117,600.9314,175.3203" style="stroke:#000000;stroke-width:1.0;"/><text fill="#000000" font-family="sans-serif" font-size="13" lengthAdjust="spacing" textLength="20.96" x="605" y="181.5283">has</text><text fill="#000000" font-family="sans-serif" font-size="13" lengthAdjust="spacing" textLength="5.0591" x="494.134" y="233.5656">*</text><text fill="#000000" font-family="sans-serif" font-size="13" lengthAdjust="spacing" textLength="7.23" x="702.9639" y="196.7459">1</text></g><!--link LocomotiveModel to LocomotiveType--><g id="link_LocomotiveModel_LocomotiveType"><path codeLine="122" d="M849.19,141.78 C892.43,123.24 948.14,99.37 986.12,83.09 " fill="none" id="LocomotiveModel-LocomotiveType" style="stroke:#181818;stroke-width:1.0;"/><polygon fill="#000000" points="904.5957,89.1757,895.1242,90.0378,897.4398,95.4403,904.5957,89.1757" style="stroke:#000000;stroke-width:1.0;"/><text fill="#000000" font-family="sans-serif" font-size="13" lengthAdjust="spacing" textLength="20.96" x="909" y="96.5283">has</text><text fill="#000000" font-family="sans-serif" font-size="13" lengthAdjust="spacing" textLength="19.5127" x="856.9665" y="153.8429">1..*</text><text fill="#000000" font-family="sans-serif" font-size="13" lengthAdjust="spacing" textLength="7.23" x="966.3212" y="104.4888">1</text></g><!--link Carriage to Cargo--><g id="link_Carriage_Cargo"><path codeLine="124" d="M942.55,760.79 C1003.36,753.02 1143.47,735.13 1204.82,727.29 " fill="none" id="Carriage-Cargo" style="stroke:#181818;stroke-width:1.0;"/><polygon fill="#000000" points="1004.4597,732.512,995.1151,730.7428,995.8599,736.5733,1004.4597,732.512" style="stroke:#000000;stroke-width:1.0;"/><text fill="#000000" font-family="sans-serif" font-size="13" lengthAdjust="spacing" textLength="57.8018" x="1008.5" y="738.5283">transports</text><text fill="#000000" font-family="sans-serif" font-size="13" lengthAdjust="spacing" textLength="19.5127" x="950.1677" y="775.7953">1..*</text><text fill="#000000" font-family="sans-serif" font-size="13" lengthAdjust="spacing" textLength="5.0591" x="1191.7354" y="744.32">*</text></g><!--link Railway to Station--><g id="link_Railway_Station"><path codeLine="126" d="M811.19,514.41 C856.95,531.41 950.14,566.03 998.63,584.03 " fill="none" id="Railway-Station" style="stroke:#181818;stroke-width:1.0;"/><polygon fill="#000000" points="888.6871,533.8864,881.2313,527.982,879.1847,533.4921,888.6871,533.8864" style="stroke:#000000;stroke-width:1.0;"/><text fill="#000000" font-family="sans-serif" font-size="13" lengthAdjust="spacing" textLength="52.0317" x="893" y="537.5283">connects</text><text fill="#000000" font-family="sans-serif" font-size="13" lengthAdjust="spacing" textLength="19.5127" x="818.9119" y="532.2795">1..*</text><text fill="#000000" font-family="sans-serif" font-size="13" lengthAdjust="spacing" textLength="19.5127" x="971.5005" y="577.1077">2..*</text></g><!--link Railway to RailwayType--><g id="link_Railway_RailwayType"><path codeLine="127" d="M811.19,501.56 C852.48,497.01 932.41,488.2 983.25,482.6 " fill="none" id="Railway-RailwayType" style="stroke:#181818;stroke-width:1.0;"/><polygon fill="#000000" points="904.9699,476.5979,895.6573,474.6673,896.3012,480.5098,904.9699,476.5979" style="stroke:#000000;stroke-width:1.0;"/><text fill="#000000" font-family="sans-serif" font-size="13" lengthAdjust="spacing" textLength="20.96" x="909" y="482.5283">has</text><text fill="#000000" font-family="sans-serif" font-size="13" lengthAdjust="spacing" textLength="7.23" x="818.8189" y="495.852">1</text><text fill="#000000" font-family="sans-serif" font-size="13" lengthAdjust="spacing" textLength="7.23" x="968.2037" y="498.8299">1</text></g><!--link Cargo to ResourceType--><g id="link_Cargo_ResourceType"><path codeLine="129" d="M1266,723.22 C1300.21,722.89 1357.07,722.35 1397.63,721.96 " fill="none" id="Cargo-ResourceType" style="stroke:#181818;stroke-width:1.0;"/><polygon fill="#000000" points="1329.4998,712.0976,1320.427,709.2454,1320.4832,715.123,1329.4998,712.0976" style="stroke:#000000;stroke-width:1.0;"/><text fill="#000000" font-family="sans-serif" font-size="13" lengthAdjust="spacing" textLength="20.96" x="1333.5" y="717.5283">has</text><text fill="#000000" font-family="sans-serif" font-size="13" lengthAdjust="spacing" textLength="7.23" x="1273.8851" y="739.1548">1</text><text fill="#000000" font-family="sans-serif" font-size="13" lengthAdjust="spacing" textLength="7.23" x="1382.6253" y="737.3641">1</text></g><!--link Cargo to CargoStatus--><g id="link_Cargo_CargoStatus"><path codeLine="130" d="M1266,737.33 C1302.12,754.27 1363.51,783.05 1404.28,802.17 " fill="none" id="Cargo-CargoStatus" style="stroke:#181818;stroke-width:1.0;"/><polygon fill="#000000" points="1329.027,750.2682,1322.0853,743.7673,1319.5898,749.0891,1329.027,750.2682" style="stroke:#000000;stroke-width:1.0;"/><text fill="#000000" font-family="sans-serif" font-size="13" lengthAdjust="spacing" textLength="20.96" x="1333.5" y="753.5283">has</text><text fill="#000000" font-family="sans-serif" font-size="13" lengthAdjust="spacing" textLength="7.23" x="1273.8851" y="756.5278">1</text><text fill="#000000" font-family="sans-serif" font-size="13" lengthAdjust="spacing" textLength="7.23" x="1389.1726" y="814.3073">1</text></g><!--link Cargo to PointOfRoute--><g id="link_Cargo_PointOfRoute"><path codeLine="131" d="M1266,705.71 C1301.22,684.48 1360.46,648.77 1401.19,624.21 " fill="none" id="Cargo-PointOfRoute" style="stroke:#181818;stroke-width:1.0;"/><polygon fill="#000000" points="1306.7179,638.727,1315.9816,636.574,1312.9469,631.5401,1306.7179,638.727" style="stroke:#000000;stroke-width:1.0;"/><text fill="#000000" font-family="sans-serif" font-size="13" lengthAdjust="spacing" textLength="47.6963" x="1320" y="641.5283">includes</text><text fill="#000000" font-family="sans-serif" font-size="13" lengthAdjust="spacing" textLength="5.0591" x="1274.0468" y="717.4798">*</text><text fill="#000000" font-family="sans-serif" font-size="13" lengthAdjust="spacing" textLength="7.23" x="1386.1209" y="644.1054">1</text></g><!--link Route to Railway--><g id="link_Route_Railway"><path codeLine="133" d="M469.08,437.15 C510.62,444.59 607.39,462.37 688,480.5 C710.96,485.66 736.84,492.3 755.71,497.28 " fill="none" id="Route-Railway" style="stroke:#181818;stroke-width:1.0;"/><polygon fill="#000000" points="587.8935,440.1721,579.6445,435.4387,578.4377,441.1913,587.8935,440.1721" style="stroke:#000000;stroke-width:1.0;"/><text fill="#000000" font-family="sans-serif" font-size="13" lengthAdjust="spacing" textLength="46.9663" x="592" y="444.5283">requires</text><text fill="#000000" font-family="sans-serif" font-size="13" lengthAdjust="spacing" textLength="5.0591" x="477.3061" y="455.47">*</text><text fill="#000000" font-family="sans-serif" font-size="13" lengthAdjust="spacing" textLength="19.5127" x="728.6074" y="511.6351">1..*</text></g><!--link Route to PointOfRoute--><g id="link_Route_PointOfRoute"><path codeLine="134" d="M469.03,428.35 C565.57,405.24 981.99,317.96 1276,452.5 C1331.11,477.72 1382.18,526.29 1413.56,560.24 " fill="none" id="Route-PointOfRoute" style="stroke:#181818;stroke-width:1.0;"/><polygon fill="#000000" points="1022.952,373.837,1014.4002,369.6754,1013.5873,375.4968,1022.952,373.837" style="stroke:#000000;stroke-width:1.0;"/><text fill="#000000" font-family="sans-serif" font-size="13" lengthAdjust="spacing" textLength="20.96" x="1027" y="378.5283">has</text><text fill="#000000" font-family="sans-serif" font-size="13" lengthAdjust="spacing" textLength="7.23" x="477.2999" y="420.9677">1</text><text fill="#000000" font-family="sans-serif" font-size="13" lengthAdjust="spacing" textLength="19.5127" x="1387.0418" y="549.1554">2..*</text></g><!--link Train to Locomotive--><g id="link_Train_Locomotive"><path codeLine="136" d="M238.48,525.85 C249.93,509.92 267.48,486.76 285,468.5 C317.74,434.38 337.41,437.17 366,399.5 C401.12,353.24 425.76,289.2 437.9,253.11 " fill="none" id="Train-Locomotive" style="stroke:#181818;stroke-width:1.0;"/><polygon fill="#000000" points="295.5489,394.1817,303.2599,388.6148,298.5151,385.1455,295.5489,394.1817" style="stroke:#000000;stroke-width:1.0;"/><text fill="#000000" font-family="sans-serif" font-size="13" lengthAdjust="spacing" textLength="49.8545" x="307.5" y="395.5283">is part of</text><text fill="#000000" font-family="sans-serif" font-size="13" lengthAdjust="spacing" textLength="7.23" x="234.7406" y="514.6662">1</text><text fill="#000000" font-family="sans-serif" font-size="13" lengthAdjust="spacing" textLength="7.23" x="427.9443" y="275.4944">1</text></g><!--link Train to Carriage--><g id="link_Train_Carriage"><path codeLine="137" d="M243.73,553.66 C307.28,585.15 525.67,689.83 718,739.5 C775.07,754.24 843.95,760.49 882.22,762.98 " fill="none" id="Train-Carriage" style="stroke:#181818;stroke-width:1.0;"/><polygon fill="#000000" points="415.7488,612.5879,423.4283,618.1983,425.2593,612.613,415.7488,612.5879" style="stroke:#000000;stroke-width:1.0;"/><text fill="#000000" font-family="sans-serif" font-size="13" lengthAdjust="spacing" textLength="49.8545" x="429.5" y="619.5283">is part of</text><text fill="#000000" font-family="sans-serif" font-size="13" lengthAdjust="spacing" textLength="7.23" x="251.3145" y="573.6492">1</text><text fill="#000000" font-family="sans-serif" font-size="13" lengthAdjust="spacing" textLength="5.0591" x="869.2749" y="778.7913">*</text></g><!--link Train to Route--><g id="link_Train_Route"><path codeLine="138" d="M243.57,540.19 C271.08,533.2 324.65,517.87 366,495.5 C388.19,483.5 410.7,465.56 426.26,452.06 " fill="none" id="Train-Route" style="stroke:#181818;stroke-width:1.0;"/><polygon fill="#000000" points="294.5034,483.9731,285.0798,485.256,287.6336,490.5501,294.5034,483.9731" style="stroke:#000000;stroke-width:1.0;"/><text fill="#000000" font-family="sans-serif" font-size="13" lengthAdjust="spacing" textLength="66.4917" x="299" y="491.5283">assigned to</text><text fill="#000000" font-family="sans-serif" font-size="13" lengthAdjust="spacing" textLength="19.5127" x="251.331" y="533.8657">1..*</text><text fill="#000000" font-family="sans-serif" font-size="13" lengthAdjust="spacing" textLength="5.0591" x="420.9473" y="473.7932">*</text></g><!--link Train to Railway--><g id="link_Train_Railway"><path codeLine="139" d="M243.72,543.19 C325.46,537.32 658.69,513.39 755.81,506.42 " fill="none" id="Train-Railway" style="stroke:#181818;stroke-width:1.0;"/><polygon fill="#000000" points="428.4872,514.7874,419.2548,512.5038,419.6758,518.3666,428.4872,514.7874" style="stroke:#000000;stroke-width:1.0;"/><text fill="#000000" font-family="sans-serif" font-size="13" lengthAdjust="spacing" textLength="43.3608" x="432.5" y="520.5283">runs on</text><text fill="#000000" font-family="sans-serif" font-size="13" lengthAdjust="spacing" textLength="19.5127" x="251.5213" y="559.2407">1..*</text><text fill="#000000" font-family="sans-serif" font-size="13" lengthAdjust="spacing" textLength="19.5127" x="728.2675" y="522.9074">1..*</text></g><!--SRC=[ZLPDRzim3BtxLmYv52ZGOTdH60eCtMN0XWLDBpkgCcqBbKLNafjvnVxxACaVikEqoqaM7n_9HqgAVPAwvOOth46DeZRO07EcWynEbfQB9rx1qVKAc07XkAvK2h0rB_0aTSLAhYnaLxD9IGskRu6XSJLcLmfAnnmo8wlQiK9wEeaw8HEAM_l5EICVEmVV1EgZ_0FiOrRB0fYGHb3ii6w0A0kRPPT8iy353ehtODXhnkYdUGDXqPBfXAO87uzTKO7B_euktr5WWqw-mE0clsuPVs01AW9QF849Aou4A30yfE0t7BR75Y16mdOm7HqtxXVmw5HseExGkl3HSAaTQAu572Q4yDQD71v8tTVPS8-a6aisA8uFjovVS6ghT7ty0EqCdFb4QWyml92TtSZZZfiA1-xdZcldAUTam69d1Cn4BrnrIQ1xBjM9zz5clI9X1ReumymSOjI9P1Oq9wKKKUp9vO1M-fs8_ts7r6UfkOkbzydtvF9WIFHKDwhCI1hxPEj1Da0bKKWni_U-GJC4HArHOKKvgGLs5fVKvaRYwqf5Btfd1ocwjbMnDmKqF9NZW3GSFylGvvNkONPe93ru6FhTzOxTtB3TVZV5PJcpGJdBRYVOFi88FSvBJeT2gc8R5ASiPy80gNW14_lsDj4mG6-ajF_mWN39WVHylGTcKqK9uQK6v4ngeReY9Blfk6pkk_X19z80jQFPkOGBKhsBckjRGBDLLjikuHhA6I_BGSBiaWhR_lveBTp7ypCt8QctvfPz9l67EKaOfruwD56t5MQcYI4zrIOg7VAa4nGs6OHaji-qYCohxN6OpfpIRBBnuAVeiRYStaQkRKklMS2ECvv0FuNLV8gecthGTKPFEIINMvf0XGjGSesEg3DGSeUiCDV_8Miyq1Cqr33abjER_zp9sD41jqzhNR8EHSJxDCaldN1fwVarZc59iPV8g7Hem0LSsfJn7gABKLOQ2lyluFOSkQwdeyD5pQ4qity0]--></g></svg>