<svg xmlns="http://www.w3.org/2000/svg" xmlns:xlink="http://www.w3.org/1999/xlink" contentStyleType="text/css" height="393px" preserveAspectRatio="none" style="width:715px;height:393px;background:#FFFFFF;" version="1.1" viewBox="0 0 715 393" width="715px" zoomAndPan="magnify"><defs/><g><!--class Map--><g id="elem_Map"><rect codeLine="11" fill="#F1F1F1" height="92.4844" id="Map" rx="2.5" ry="2.5" style="stroke:#181818;stroke-width:0.5;" width="47.0205" x="11.0492" y="160"/><text fill="#000000" font-family="sans-serif" font-size="14" lengthAdjust="spacing" textLength="27.2344" x="20.9422" y="180.1074">Map</text><line style="stroke:#181818;stroke-width:0.5;" x1="12.0492" x2="57.0697" y1="188.6211" y2="188.6211"/><text fill="#000000" font-family="sans-serif" font-size="14" lengthAdjust="spacing" textLength="35.0205" x="17.0492" y="207.7285">name</text><text fill="#000000" font-family="sans-serif" font-size="14" lengthAdjust="spacing" textLength="24.8965" x="17.0492" y="226.3496">size</text><text fill="#000000" font-family="sans-serif" font-size="14" lengthAdjust="spacing" textLength="32.6826" x="17.0492" y="244.9707">scale</text></g><!--class Scenario--><g id="elem_Scenario"><rect codeLine="17" fill="#F1F1F1" height="36.6211" id="Scenario" rx="2.5" ry="2.5" style="stroke:#181818;stroke-width:0.5;" width="61.2549" x="217.0492" y="25.5"/><text fill="#000000" font-family="sans-serif" font-size="14" lengthAdjust="spacing" textLength="55.2549" x="220.0492" y="45.6074">Scenario</text><line style="stroke:#181818;stroke-width:0.5;" x1="218.0492" x2="277.304" y1="54.1211" y2="54.1211"/></g><!--class Editor--><g id="elem_Editor"><rect codeLine="20" fill="#F1F1F1" height="73.8633" id="Editor" rx="2.5" ry="2.5" style="stroke:#181818;stroke-width:0.5;" width="74.2549" x="41.5492" y="7"/><text fill="#000000" font-family="sans-serif" font-size="14" lengthAdjust="spacing" textLength="36.5723" x="60.3905" y="27.1074">Editor</text><line style="stroke:#181818;stroke-width:0.5;" x1="42.5492" x2="114.804" y1="35.6211" y2="35.6211"/><text fill="#000000" font-family="sans-serif" font-size="14" lengthAdjust="spacing" textLength="62.2549" x="47.5492" y="54.7285">username</text><text fill="#000000" font-family="sans-serif" font-size="14" lengthAdjust="spacing" textLength="59.917" x="47.5492" y="73.3496">password</text></g><!--class IndustryChanger--><g id="elem_IndustryChanger"><rect codeLine="25" fill="#F1F1F1" height="55.2422" id="IndustryChanger" rx="2.5" ry="2.5" style="stroke:#181818;stroke-width:0.5;" width="109.5029" x="394.5492" y="331"/><text fill="#000000" font-family="sans-serif" font-size="14" lengthAdjust="spacing" textLength="103.5029" x="397.5492" y="351.1074">IndustryChanger</text><line style="stroke:#181818;stroke-width:0.5;" x1="395.5492" x2="503.0521" y1="359.6211" y2="359.6211"/><text fill="#000000" font-family="sans-serif" font-size="14" lengthAdjust="spacing" textLength="34.2412" x="400.5492" y="378.7285">effect</text></g><!--class TimeRestriction--><g id="elem_TimeRestriction"><rect codeLine="29" fill="#F1F1F1" height="55.2422" id="TimeRestriction" rx="2.5" ry="2.5" style="stroke:#181818;stroke-width:0.5;" width="103.2412" x="109.0492" y="178.5"/><text fill="#000000" font-family="sans-serif" font-size="14" lengthAdjust="spacing" textLength="97.2412" x="112.0492" y="198.6074">TimeRestriction</text><line style="stroke:#181818;stroke-width:0.5;" x1="110.0492" x2="211.2904" y1="207.1211" y2="207.1211"/><text fill="#000000" font-family="sans-serif" font-size="14" lengthAdjust="spacing" textLength="27.2344" x="115.0492" y="226.2285">year</text></g><!--class PortsBehaviour--><g id="elem_PortsBehaviour"><rect codeLine="33" fill="#F1F1F1" height="73.8633" id="PortsBehaviour" rx="2.5" ry="2.5" style="stroke:#181818;stroke-width:0.5;" width="101.7168" x="247.5492" y="169"/><text fill="#000000" font-family="sans-serif" font-size="14" lengthAdjust="spacing" textLength="95.7168" x="250.5492" y="189.1074">PortsBehaviour</text><line style="stroke:#181818;stroke-width:0.5;" x1="248.5492" x2="348.266" y1="197.6211" y2="197.6211"/><text fill="#000000" font-family="sans-serif" font-size="14" lengthAdjust="spacing" textLength="69.2549" x="253.5492" y="216.7285">importation</text><text fill="#000000" font-family="sans-serif" font-size="14" lengthAdjust="spacing" textLength="69.2686" x="253.5492" y="235.3496">exportation</text></g><!--class ResourceType--><g id="elem_ResourceType"><rect codeLine="38" fill="#F1F1F1" height="55.2422" id="ResourceType" rx="2.5" ry="2.5" style="stroke:#181818;stroke-width:0.5;" width="97.041" x="250.0492" y="331"/><text fill="#000000" font-family="sans-serif" font-size="14" lengthAdjust="spacing" textLength="91.041" x="253.0492" y="351.1074">ResourceType</text><line style="stroke:#181818;stroke-width:0.5;" x1="251.0492" x2="346.0902" y1="359.6211" y2="359.6211"/><text fill="#000000" font-family="sans-serif" font-size="14" lengthAdjust="spacing" textLength="33.4688" x="256.0492" y="378.7285">value</text></g><!--class HistoricalRestriction--><g id="elem_HistoricalRestriction"><rect fill="#F1F1F1" height="36.6211" id="HistoricalRestriction" rx="2.5" ry="2.5" style="stroke:#181818;stroke-width:0.5;" width="129.6963" x="384.5492" y="187.5"/><text fill="#000000" font-family="sans-serif" font-size="14" lengthAdjust="spacing" textLength="123.6963" x="387.5492" y="207.6074">HistoricalRestriction</text><line style="stroke:#181818;stroke-width:0.5;" x1="385.5492" x2="513.2455" y1="216.1211" y2="216.1211"/></g><!--class TechnologicalRestriction--><g id="elem_TechnologicalRestriction"><rect fill="#F1F1F1" height="36.6211" id="TechnologicalRestriction" rx="2.5" ry="2.5" style="stroke:#181818;stroke-width:0.5;" width="158.5166" x="550.0492" y="187.5"/><text fill="#000000" font-family="sans-serif" font-size="14" lengthAdjust="spacing" textLength="152.5166" x="553.0492" y="207.6074">TechnologicalRestriction</text><line style="stroke:#181818;stroke-width:0.5;" x1="551.0492" x2="707.5658" y1="216.1211" y2="216.1211"/></g><!--link Editor to Map--><g id="link_Editor_Map"><path codeLine="43" d="M41.5392,73.48 C30.7392,83.97 20.2992,96.8 14.5492,111 C8.3492,126.31 9.9292,143.83 14.2092,159.57 " fill="none" id="Editor-Map" style="stroke:#181818;stroke-width:1.0;"/><polygon fill="#000000" points="18.0363,125.4111,23.5743,117.6793,17.972,115.9008,18.0363,125.4111" style="stroke:#000000;stroke-width:1.0;"/><text fill="#000000" font-family="sans-serif" font-size="13" lengthAdjust="spacing" textLength="42.6309" x="28.5492" y="126.0283">creates</text><text fill="#000000" font-family="sans-serif" font-size="13" lengthAdjust="spacing" textLength="7.23" x="26.1814" y="74.8796">1</text><text fill="#000000" font-family="sans-serif" font-size="13" lengthAdjust="spacing" textLength="5.0591" x="6" y="148.8602">*</text></g><!--link Editor to Scenario--><g id="link_Editor_Scenario"><path codeLine="44" d="M115.6392,44 C146.0492,44 188.5792,44 217.0392,44 " fill="none" id="Editor-Scenario" style="stroke:#181818;stroke-width:1.0;"/><polygon fill="#000000" points="147.7992,31.6455,138.7541,28.7066,138.7541,34.5844,147.7992,31.6455" style="stroke:#000000;stroke-width:1.0;"/><text fill="#000000" font-family="sans-serif" font-size="13" lengthAdjust="spacing" textLength="42.6309" x="151.7992" y="37.0283">creates</text><text fill="#000000" font-family="sans-serif" font-size="13" lengthAdjust="spacing" textLength="7.23" x="124.0083" y="39.3193">1</text><text fill="#000000" font-family="sans-serif" font-size="13" lengthAdjust="spacing" textLength="5.0591" x="203.9691" y="39.0381">*</text></g><!--link Scenario to Map--><g id="link_Scenario_Map"><path codeLine="45" d="M216.9892,62.23 C195.3292,74.86 165.9092,92.9 141.5492,111 C111.3792,133.41 79.3092,162.35 58.2392,182.16 " fill="none" id="Scenario-Map" style="stroke:#181818;stroke-width:1.0;"/><polygon fill="#000000" points="142.5597,123.6594,151.5483,120.5522,148.0052,115.8622,142.5597,123.6594" style="stroke:#000000;stroke-width:1.0;"/><text fill="#000000" font-family="sans-serif" font-size="13" lengthAdjust="spacing" textLength="27.46" x="155.5492" y="126.0283">uses</text><text fill="#000000" font-family="sans-serif" font-size="13" lengthAdjust="spacing" textLength="5.0591" x="203.9069" y="61.7117">*</text><text fill="#000000" font-family="sans-serif" font-size="13" lengthAdjust="spacing" textLength="7.23" x="65.9158" y="170.0655">1</text></g><!--link Scenario to HistoricalRestriction--><g id="link_Scenario_HistoricalRestriction"><path codeLine="46" d="M276.1792,62.75 C296.1292,75.48 323.0892,93.43 345.5492,111 C377.1792,135.74 411.2392,167.64 431.4592,187.19 " fill="none" id="Scenario-HistoricalRestriction" style="stroke:#181818;stroke-width:1.0;"/><polygon fill="#000000" points="375.4509,123.7723,370.2305,115.8225,366.5547,120.4092,375.4509,123.7723" style="stroke:#000000;stroke-width:1.0;"/><text fill="#000000" font-family="sans-serif" font-size="13" lengthAdjust="spacing" textLength="47.6963" x="380.5492" y="126.0283">includes</text><text fill="#000000" font-family="sans-serif" font-size="13" lengthAdjust="spacing" textLength="7.23" x="275.9295" y="84.1918">1</text><text fill="#000000" font-family="sans-serif" font-size="13" lengthAdjust="spacing" textLength="7.23" x="418.1955" y="176.2944">1</text></g><!--link Scenario to TechnologicalRestriction--><g id="link_Scenario_TechnologicalRestriction"><path codeLine="47" d="M278.0792,54.44 C315.7892,66.38 381.6892,88.15 436.5492,111 C494.0092,134.93 558.6292,167.64 596.6192,187.49 " fill="none" id="Scenario-TechnologicalRestriction" style="stroke:#181818;stroke-width:1.0;"/><polygon fill="#000000" points="489.1629,122.5726,481.9493,116.3746,479.6839,121.7983,489.1629,122.5726" style="stroke:#000000;stroke-width:1.0;"/><text fill="#000000" font-family="sans-serif" font-size="13" lengthAdjust="spacing" textLength="47.6963" x="493.5492" y="126.0283">includes</text><text fill="#000000" font-family="sans-serif" font-size="13" lengthAdjust="spacing" textLength="7.23" x="286.3709" y="52.0228">1</text><text fill="#000000" font-family="sans-serif" font-size="13" lengthAdjust="spacing" textLength="7.23" x="578.5717" y="176.3491">1</text></g><!--link Scenario to TimeRestriction--><g id="link_Scenario_TimeRestriction"><path codeLine="48" d="M233.4892,62.51 C223.5192,75.43 210.2392,93.7 200.5492,111 C188.3292,132.82 177.4392,159.12 170.1192,178.34 " fill="none" id="Scenario-TimeRestriction" style="stroke:#181818;stroke-width:1.0;"/><polygon fill="#000000" points="203.1494,125.032,210.0689,118.5074,204.9124,115.6862,203.1494,125.032" style="stroke:#000000;stroke-width:1.0;"/><text fill="#000000" font-family="sans-serif" font-size="13" lengthAdjust="spacing" textLength="47.6963" x="214.5492" y="126.0283">includes</text><text fill="#000000" font-family="sans-serif" font-size="13" lengthAdjust="spacing" textLength="7.23" x="221.5469" y="84.2291">1</text><text fill="#000000" font-family="sans-serif" font-size="13" lengthAdjust="spacing" textLength="7.23" x="164.5216" y="167.012">1</text></g><!--link Scenario to PortsBehaviour--><g id="link_Scenario_PortsBehaviour"><path codeLine="49" d="M253.1992,62.73 C261.3192,88.2 276.4592,135.7 286.9992,168.77 " fill="none" id="Scenario-PortsBehaviour" style="stroke:#181818;stroke-width:1.0;"/><polygon fill="#000000" points="282.0676,125.4094,282.1208,115.8989,276.5206,117.684,282.0676,125.4094" style="stroke:#000000;stroke-width:1.0;"/><text fill="#000000" font-family="sans-serif" font-size="13" lengthAdjust="spacing" textLength="47.6963" x="289.5492" y="126.0283">includes</text><text fill="#000000" font-family="sans-serif" font-size="13" lengthAdjust="spacing" textLength="7.23" x="246.7736" y="84.1664">1</text><text fill="#000000" font-family="sans-serif" font-size="13" lengthAdjust="spacing" textLength="7.23" x="277.3641" y="157.6908">1</text></g><!--link PortsBehaviour to ResourceType--><g id="link_PortsBehaviour_ResourceType"><path codeLine="50" d="M298.5492,243.05 C298.5492,270.01 298.5492,306.28 298.5492,330.7 " fill="none" id="PortsBehaviour-ResourceType" style="stroke:#181818;stroke-width:1.0;"/><polygon fill="#000000" points="303.5492,296.6455,306.4881,287.6004,300.6102,287.6004,303.5492,296.6455" style="stroke:#000000;stroke-width:1.0;"/><text fill="#000000" font-family="sans-serif" font-size="13" lengthAdjust="spacing" textLength="20.96" x="312.5492" y="297.0283">has</text><text fill="#000000" font-family="sans-serif" font-size="13" lengthAdjust="spacing" textLength="7.23" x="290.9917" y="264.944">1</text><text fill="#000000" font-family="sans-serif" font-size="13" lengthAdjust="spacing" textLength="19.5127" x="277.5226" y="319.793">2..*</text></g><!--link HistoricalRestriction to IndustryChanger--><g id="link_HistoricalRestriction_IndustryChanger"><path codeLine="51" d="M449.5492,224.56 C449.5492,250.77 449.5492,300.31 449.5492,330.95 " fill="none" id="HistoricalRestriction-IndustryChanger" style="stroke:#181818;stroke-width:1.0;"/><polygon fill="#000000" points="454.5492,296.6455,457.4881,287.6004,451.6102,287.6004,454.5492,296.6455" style="stroke:#000000;stroke-width:1.0;"/><text fill="#000000" font-family="sans-serif" font-size="13" lengthAdjust="spacing" textLength="20.96" x="463.5492" y="297.0283">has</text><text fill="#000000" font-family="sans-serif" font-size="13" lengthAdjust="spacing" textLength="7.23" x="441.6398" y="246.2932">1</text><text fill="#000000" font-family="sans-serif" font-size="13" lengthAdjust="spacing" textLength="19.5127" x="428.469" y="319.6474">1..*</text></g><!--SRC=[bPBTIWCn48NlynH3Rmf2YthP2q55q0j1R5zWp4utGxF9acHRg_ZkJhFj_lY3k5VPcU-SS0w96tOr1goWyivh4tn5a493AdQR6lK6IrgclIK8f1EwqWw1QB3mEtObhD56KjD-PTbHsjS4FYJZrTJIEa7o4BWq2Ge-sB5t0pDjCSRhb0A_D8aUj7TBVYCuLuOB0ir1oztvN95O5b4fbJNmY3MyAv3FOKNv44NQ7ZIAxEE4BZKv3Eo5xsPt1ISVZWvDfD2vrBBU-L3qx8ChcfZ2_jP85nHQ3QtNagQ7LbpHCmd6EMCBxGb3Zpn9BV6636xPDqSRhcgPOgubsxxs_vrGV4MWQINTjh8jsYOdLCSWaui9p61oDid5B407maGHhhu3NHr3gXiUYDaiuwsJb3C6BZhWdgDOixGzIBu0TjesnQ-g5MdZlFNbluNZYl_antsFyF6g4rtEvn9_MFS231u4FqRjBykwB-_a9Fq4]--></g></svg>